<mxfile host="app.diagrams.net" modified="2021-10-20T18:11:32.643Z" agent="5.0 (X11)" etag="yxGVgdPsmMrApZgHJD4C" version="15.5.5" type="github">
  <diagram id="gJiCS4sW5eThhoqxsZPo" name="Page-1">
    <mxGraphModel dx="796" dy="481" grid="1" gridSize="10" guides="1" tooltips="1" connect="1" arrows="1" fold="1" page="1" pageScale="1" pageWidth="827" pageHeight="1169" math="0" shadow="0">
      <root>
        <mxCell id="0" />
        <mxCell id="1" parent="0" />
        <mxCell id="mdtNHMtSQEJwOqvmZg3s-24" style="rounded=1;sketch=0;orthogonalLoop=1;jettySize=auto;html=1;exitX=0.75;exitY=0;exitDx=0;exitDy=0;entryX=0.5;entryY=1;entryDx=0;entryDy=0;endArrow=none;endFill=0;" edge="1" parent="1" source="mdtNHMtSQEJwOqvmZg3s-6" target="mdtNHMtSQEJwOqvmZg3s-9">
          <mxGeometry relative="1" as="geometry" />
        </mxCell>
        <mxCell id="mdtNHMtSQEJwOqvmZg3s-25" style="edgeStyle=none;rounded=1;sketch=0;orthogonalLoop=1;jettySize=auto;html=1;exitX=0.25;exitY=0;exitDx=0;exitDy=0;entryX=0.5;entryY=1;entryDx=0;entryDy=0;endArrow=none;endFill=0;" edge="1" parent="1" source="mdtNHMtSQEJwOqvmZg3s-6" target="mdtNHMtSQEJwOqvmZg3s-8">
          <mxGeometry relative="1" as="geometry" />
        </mxCell>
        <mxCell id="mdtNHMtSQEJwOqvmZg3s-6" value="MENÚ" style="rounded=0;whiteSpace=wrap;html=1;sketch=0;" vertex="1" parent="1">
          <mxGeometry x="79" y="110" width="120" height="60" as="geometry" />
        </mxCell>
        <mxCell id="mdtNHMtSQEJwOqvmZg3s-26" style="edgeStyle=none;rounded=1;sketch=0;orthogonalLoop=1;jettySize=auto;html=1;exitX=0.25;exitY=0;exitDx=0;exitDy=0;entryX=0.5;entryY=1;entryDx=0;entryDy=0;endArrow=none;endFill=0;" edge="1" parent="1" source="mdtNHMtSQEJwOqvmZg3s-7" target="mdtNHMtSQEJwOqvmZg3s-10">
          <mxGeometry relative="1" as="geometry" />
        </mxCell>
        <mxCell id="mdtNHMtSQEJwOqvmZg3s-7" value="PLAT" style="rounded=0;whiteSpace=wrap;html=1;sketch=0;" vertex="1" parent="1">
          <mxGeometry x="359" y="110" width="120" height="60" as="geometry" />
        </mxCell>
        <mxCell id="mdtNHMtSQEJwOqvmZg3s-8" value="id_menu" style="ellipse;whiteSpace=wrap;html=1;rounded=0;sketch=0;fontStyle=4" vertex="1" parent="1">
          <mxGeometry x="69" y="50" width="60" height="30" as="geometry" />
        </mxCell>
        <mxCell id="mdtNHMtSQEJwOqvmZg3s-9" value="calories" style="ellipse;whiteSpace=wrap;html=1;rounded=0;sketch=0;" vertex="1" parent="1">
          <mxGeometry x="149" y="50" width="50" height="30" as="geometry" />
        </mxCell>
        <mxCell id="mdtNHMtSQEJwOqvmZg3s-10" value="id_plat" style="ellipse;whiteSpace=wrap;html=1;rounded=0;sketch=0;fontStyle=4" vertex="1" parent="1">
          <mxGeometry x="359" y="50" width="50" height="30" as="geometry" />
        </mxCell>
        <mxCell id="mdtNHMtSQEJwOqvmZg3s-11" value="nom" style="ellipse;whiteSpace=wrap;html=1;rounded=0;sketch=0;" vertex="1" parent="1">
          <mxGeometry x="439" y="50" width="40" height="30" as="geometry" />
        </mxCell>
        <mxCell id="mdtNHMtSQEJwOqvmZg3s-18" style="edgeStyle=orthogonalEdgeStyle;curved=0;rounded=1;sketch=0;orthogonalLoop=1;jettySize=auto;html=1;entryX=0;entryY=0.5;entryDx=0;entryDy=0;endArrow=doubleBlock;endFill=1;" edge="1" parent="1" source="mdtNHMtSQEJwOqvmZg3s-17" target="mdtNHMtSQEJwOqvmZg3s-7">
          <mxGeometry relative="1" as="geometry" />
        </mxCell>
        <mxCell id="mdtNHMtSQEJwOqvmZg3s-19" style="edgeStyle=orthogonalEdgeStyle;curved=0;rounded=1;sketch=0;orthogonalLoop=1;jettySize=auto;html=1;exitX=0;exitY=0.5;exitDx=0;exitDy=0;entryX=1;entryY=0.5;entryDx=0;entryDy=0;endArrow=doubleBlock;endFill=1;" edge="1" parent="1" source="mdtNHMtSQEJwOqvmZg3s-17" target="mdtNHMtSQEJwOqvmZg3s-6">
          <mxGeometry relative="1" as="geometry" />
        </mxCell>
        <mxCell id="mdtNHMtSQEJwOqvmZg3s-27" style="edgeStyle=none;rounded=1;sketch=0;orthogonalLoop=1;jettySize=auto;html=1;exitX=0.75;exitY=0;exitDx=0;exitDy=0;endArrow=none;endFill=0;" edge="1" parent="1" source="mdtNHMtSQEJwOqvmZg3s-7" target="mdtNHMtSQEJwOqvmZg3s-11">
          <mxGeometry relative="1" as="geometry" />
        </mxCell>
        <mxCell id="mdtNHMtSQEJwOqvmZg3s-17" value="Pertany" style="rhombus;whiteSpace=wrap;html=1;rounded=0;sketch=0;" vertex="1" parent="1">
          <mxGeometry x="239" y="120" width="80" height="40" as="geometry" />
        </mxCell>
        <mxCell id="mdtNHMtSQEJwOqvmZg3s-20" value="N:M" style="text;html=1;align=center;verticalAlign=middle;resizable=0;points=[];autosize=1;strokeColor=none;fillColor=none;" vertex="1" parent="1">
          <mxGeometry x="259" y="100" width="40" height="20" as="geometry" />
        </mxCell>
        <mxCell id="mdtNHMtSQEJwOqvmZg3s-22" value="(1,N)" style="text;html=1;align=center;verticalAlign=middle;resizable=0;points=[];autosize=1;strokeColor=none;fillColor=none;" vertex="1" parent="1">
          <mxGeometry x="199" y="140" width="40" height="20" as="geometry" />
        </mxCell>
        <mxCell id="mdtNHMtSQEJwOqvmZg3s-23" value="(1,3)" style="text;html=1;align=center;verticalAlign=middle;resizable=0;points=[];autosize=1;strokeColor=none;fillColor=none;" vertex="1" parent="1">
          <mxGeometry x="319" y="140" width="40" height="20" as="geometry" />
        </mxCell>
        <mxCell id="mdtNHMtSQEJwOqvmZg3s-30" style="edgeStyle=none;rounded=1;sketch=0;orthogonalLoop=1;jettySize=auto;html=1;exitX=0;exitY=0.5;exitDx=0;exitDy=0;entryX=1;entryY=0.5;entryDx=0;entryDy=0;endArrow=doubleBlock;endFill=1;" edge="1" parent="1" source="mdtNHMtSQEJwOqvmZg3s-28" target="mdtNHMtSQEJwOqvmZg3s-7">
          <mxGeometry relative="1" as="geometry" />
        </mxCell>
        <mxCell id="mdtNHMtSQEJwOqvmZg3s-31" style="edgeStyle=none;rounded=1;sketch=0;orthogonalLoop=1;jettySize=auto;html=1;exitX=1;exitY=0.5;exitDx=0;exitDy=0;entryX=0;entryY=0.5;entryDx=0;entryDy=0;endArrow=doubleBlock;endFill=1;" edge="1" parent="1" source="mdtNHMtSQEJwOqvmZg3s-28" target="mdtNHMtSQEJwOqvmZg3s-29">
          <mxGeometry relative="1" as="geometry" />
        </mxCell>
        <mxCell id="mdtNHMtSQEJwOqvmZg3s-28" value="Conté" style="rhombus;whiteSpace=wrap;html=1;rounded=0;sketch=0;" vertex="1" parent="1">
          <mxGeometry x="519" y="120" width="80" height="40" as="geometry" />
        </mxCell>
        <mxCell id="mdtNHMtSQEJwOqvmZg3s-36" style="edgeStyle=none;rounded=1;sketch=0;orthogonalLoop=1;jettySize=auto;html=1;exitX=0.25;exitY=1;exitDx=0;exitDy=0;entryX=0.5;entryY=0;entryDx=0;entryDy=0;endArrow=none;endFill=0;" edge="1" parent="1" source="mdtNHMtSQEJwOqvmZg3s-29" target="mdtNHMtSQEJwOqvmZg3s-35">
          <mxGeometry relative="1" as="geometry" />
        </mxCell>
        <mxCell id="mdtNHMtSQEJwOqvmZg3s-29" value="INGREDIENT" style="rounded=0;whiteSpace=wrap;html=1;sketch=0;" vertex="1" parent="1">
          <mxGeometry x="639" y="110" width="120" height="60" as="geometry" />
        </mxCell>
        <mxCell id="mdtNHMtSQEJwOqvmZg3s-32" value="N:M" style="text;html=1;align=center;verticalAlign=middle;resizable=0;points=[];autosize=1;strokeColor=none;fillColor=none;" vertex="1" parent="1">
          <mxGeometry x="539" y="100" width="40" height="20" as="geometry" />
        </mxCell>
        <mxCell id="mdtNHMtSQEJwOqvmZg3s-33" value="(1,N)" style="text;html=1;align=center;verticalAlign=middle;resizable=0;points=[];autosize=1;strokeColor=none;fillColor=none;" vertex="1" parent="1">
          <mxGeometry x="479" y="140" width="40" height="20" as="geometry" />
        </mxCell>
        <mxCell id="mdtNHMtSQEJwOqvmZg3s-34" value="(1,M)" style="text;html=1;align=center;verticalAlign=middle;resizable=0;points=[];autosize=1;strokeColor=none;fillColor=none;" vertex="1" parent="1">
          <mxGeometry x="599" y="140" width="40" height="20" as="geometry" />
        </mxCell>
        <mxCell id="mdtNHMtSQEJwOqvmZg3s-35" value="id_ing" style="ellipse;whiteSpace=wrap;html=1;rounded=0;sketch=0;fontStyle=4" vertex="1" parent="1">
          <mxGeometry x="639" y="190" width="41" height="30" as="geometry" />
        </mxCell>
        <mxCell id="mdtNHMtSQEJwOqvmZg3s-40" style="edgeStyle=none;rounded=1;sketch=0;orthogonalLoop=1;jettySize=auto;html=1;exitX=0.5;exitY=0;exitDx=0;exitDy=0;endArrow=none;endFill=0;" edge="1" parent="1" target="mdtNHMtSQEJwOqvmZg3s-29">
          <mxGeometry relative="1" as="geometry">
            <mxPoint x="744" y="190" as="sourcePoint" />
          </mxGeometry>
        </mxCell>
        <mxCell id="mdtNHMtSQEJwOqvmZg3s-37" value="alergies" style="ellipse;whiteSpace=wrap;html=1;rounded=0;sketch=0;" vertex="1" parent="1">
          <mxGeometry x="719" y="190" width="50" height="30" as="geometry" />
        </mxCell>
        <mxCell id="mdtNHMtSQEJwOqvmZg3s-39" style="edgeStyle=none;rounded=1;sketch=0;orthogonalLoop=1;jettySize=auto;html=1;exitX=0.5;exitY=0;exitDx=0;exitDy=0;endArrow=none;endFill=0;" edge="1" parent="1" source="mdtNHMtSQEJwOqvmZg3s-38" target="mdtNHMtSQEJwOqvmZg3s-29">
          <mxGeometry relative="1" as="geometry" />
        </mxCell>
        <mxCell id="mdtNHMtSQEJwOqvmZg3s-38" value="nom" style="ellipse;whiteSpace=wrap;html=1;rounded=0;sketch=0;" vertex="1" parent="1">
          <mxGeometry x="679" y="190" width="40" height="30" as="geometry" />
        </mxCell>
        <mxCell id="mdtNHMtSQEJwOqvmZg3s-46" style="edgeStyle=orthogonalEdgeStyle;rounded=1;sketch=0;orthogonalLoop=1;jettySize=auto;html=1;exitX=1;exitY=0.5;exitDx=0;exitDy=0;entryX=0.5;entryY=1;entryDx=0;entryDy=0;endArrow=none;endFill=0;" edge="1" parent="1" source="mdtNHMtSQEJwOqvmZg3s-42" target="mdtNHMtSQEJwOqvmZg3s-7">
          <mxGeometry relative="1" as="geometry" />
        </mxCell>
        <mxCell id="mdtNHMtSQEJwOqvmZg3s-47" style="edgeStyle=orthogonalEdgeStyle;rounded=0;sketch=0;orthogonalLoop=1;jettySize=auto;html=1;exitX=0;exitY=0.25;exitDx=0;exitDy=0;entryX=0.5;entryY=0;entryDx=0;entryDy=0;endArrow=none;endFill=0;" edge="1" parent="1" source="mdtNHMtSQEJwOqvmZg3s-42" target="mdtNHMtSQEJwOqvmZg3s-43">
          <mxGeometry relative="1" as="geometry" />
        </mxCell>
        <mxCell id="mdtNHMtSQEJwOqvmZg3s-48" style="edgeStyle=orthogonalEdgeStyle;rounded=0;sketch=0;orthogonalLoop=1;jettySize=auto;html=1;exitX=0;exitY=0.5;exitDx=0;exitDy=0;entryX=0.5;entryY=0;entryDx=0;entryDy=0;endArrow=none;endFill=0;" edge="1" parent="1" source="mdtNHMtSQEJwOqvmZg3s-42" target="mdtNHMtSQEJwOqvmZg3s-45">
          <mxGeometry relative="1" as="geometry" />
        </mxCell>
        <mxCell id="mdtNHMtSQEJwOqvmZg3s-49" style="edgeStyle=orthogonalEdgeStyle;rounded=0;sketch=0;orthogonalLoop=1;jettySize=auto;html=1;exitX=0;exitY=0.75;exitDx=0;exitDy=0;endArrow=none;endFill=0;" edge="1" parent="1" source="mdtNHMtSQEJwOqvmZg3s-42" target="mdtNHMtSQEJwOqvmZg3s-44">
          <mxGeometry relative="1" as="geometry" />
        </mxCell>
        <mxCell id="mdtNHMtSQEJwOqvmZg3s-42" value="" style="triangle;whiteSpace=wrap;html=1;rounded=0;sketch=0;rotation=-90;" vertex="1" parent="1">
          <mxGeometry x="390.25" y="186.25" width="57.5" height="72.5" as="geometry" />
        </mxCell>
        <mxCell id="mdtNHMtSQEJwOqvmZg3s-43" value="PRIMER" style="rounded=0;whiteSpace=wrap;html=1;sketch=0;" vertex="1" parent="1">
          <mxGeometry x="229" y="310" width="120" height="60" as="geometry" />
        </mxCell>
        <mxCell id="mdtNHMtSQEJwOqvmZg3s-44" value="POSTRE" style="rounded=0;whiteSpace=wrap;html=1;sketch=0;" vertex="1" parent="1">
          <mxGeometry x="489" y="310" width="120" height="60" as="geometry" />
        </mxCell>
        <mxCell id="mdtNHMtSQEJwOqvmZg3s-45" value="SEGON" style="rounded=0;whiteSpace=wrap;html=1;sketch=0;" vertex="1" parent="1">
          <mxGeometry x="359" y="310" width="120" height="60" as="geometry" />
        </mxCell>
        <mxCell id="mdtNHMtSQEJwOqvmZg3s-50" value="ES" style="text;html=1;align=center;verticalAlign=middle;resizable=0;points=[];autosize=1;strokeColor=none;fillColor=none;" vertex="1" parent="1">
          <mxGeometry x="404" y="220" width="30" height="20" as="geometry" />
        </mxCell>
        <mxCell id="mdtNHMtSQEJwOqvmZg3s-51" value="&lt;div&gt;T, D&lt;/div&gt;" style="text;html=1;align=center;verticalAlign=middle;resizable=0;points=[];autosize=1;strokeColor=none;fillColor=none;" vertex="1" parent="1">
          <mxGeometry x="450" y="210" width="40" height="20" as="geometry" />
        </mxCell>
      </root>
    </mxGraphModel>
  </diagram>
</mxfile>
